<mxfile host="app.diagrams.net" modified="2021-09-05T04:09:25.163Z" agent="5.0 (Windows NT 10.0; Win64; x64) AppleWebKit/537.36 (KHTML, like Gecko) Chrome/92.0.4515.159 Safari/537.36" etag="V92P2SVEt6FRGQsWApdd" version="15.0.6" type="github">
  <diagram name="Page-1" id="929967ad-93f9-6ef4-fab6-5d389245f69c">
    <mxGraphModel dx="1422" dy="832" grid="1" gridSize="10" guides="1" tooltips="1" connect="1" arrows="1" fold="1" page="1" pageScale="1.5" pageWidth="1169" pageHeight="826" background="none" math="0" shadow="0">
      <root>
        <mxCell id="0" style=";html=1;" />
        <mxCell id="1" style=";html=1;" parent="0" />
        <mxCell id="1672d66443f91eb5-1" value="&lt;p style=&quot;margin: 0px ; margin-top: 4px ; margin-left: 10px ; text-align: left&quot;&gt;&lt;b&gt;Design Pattern - Simple Factory&lt;/b&gt;&lt;/p&gt;&lt;p style=&quot;margin: 0px ; margin-top: 4px ; margin-left: 10px ; text-align: left&quot;&gt;&lt;b&gt;&lt;br&gt;&lt;/b&gt;&lt;/p&gt;" style="html=1;strokeWidth=1;shape=mxgraph.sysml.package;html=1;overflow=fill;whiteSpace=wrap;fillColor=none;gradientColor=none;fontSize=12;align=center;labelX=327.64;shadow=1;" parent="1" vertex="1">
          <mxGeometry x="300" y="295" width="1120" height="650" as="geometry" />
        </mxCell>
        <mxCell id="1672d66443f91eb5-2" value="&lt;i style=&quot;font-weight: normal&quot;&gt;&amp;lt;&amp;lt;FactoryInterface&amp;gt;&amp;gt;&lt;/i&gt;&lt;br&gt;+create():AutoMobileInterface" style="shape=folder;tabWidth=80;tabHeight=0;tabPosition=left;strokeWidth=1;html=1;whiteSpace=wrap;align=center;fontSize=12;fontStyle=1" parent="1" vertex="1">
          <mxGeometry x="860" y="510" width="220" height="70" as="geometry" />
        </mxCell>
        <mxCell id="1672d66443f91eb5-13" style="edgeStyle=orthogonalEdgeStyle;rounded=0;html=1;jettySize=auto;orthogonalLoop=1;endArrow=block;endFill=0;" parent="1" source="1672d66443f91eb5-4" target="1672d66443f91eb5-2" edge="1">
          <mxGeometry relative="1" as="geometry">
            <Array as="points">
              <mxPoint x="830" y="625" />
              <mxPoint x="923" y="625" />
            </Array>
          </mxGeometry>
        </mxCell>
        <mxCell id="1672d66443f91eb5-4" value="&lt;p&gt;class CarFactory&lt;/p&gt;&lt;hr&gt;+create(): Car" style="shape=rect;html=1;overflow=fill;whiteSpace=wrap;align=center;fontStyle=1" parent="1" vertex="1">
          <mxGeometry x="750" y="675" width="160" height="75" as="geometry" />
        </mxCell>
        <mxCell id="1672d66443f91eb5-15" style="edgeStyle=orthogonalEdgeStyle;rounded=0;html=1;endArrow=block;endFill=0;jettySize=auto;orthogonalLoop=1;" parent="1" source="1672d66443f91eb5-5" target="1672d66443f91eb5-2" edge="1">
          <mxGeometry relative="1" as="geometry">
            <Array as="points">
              <mxPoint x="1070" y="625" />
              <mxPoint x="1003" y="625" />
            </Array>
          </mxGeometry>
        </mxCell>
        <mxCell id="1672d66443f91eb5-5" value="&lt;p&gt;class BikeFactory&lt;/p&gt;&lt;hr&gt;+create() Bike" style="shape=rect;html=1;overflow=fill;whiteSpace=wrap;align=center;fontStyle=1" parent="1" vertex="1">
          <mxGeometry x="990" y="675" width="160" height="70" as="geometry" />
        </mxCell>
        <mxCell id="1672d66443f91eb5-19" style="rounded=0;html=1;endArrow=none;endFill=0;jettySize=auto;orthogonalLoop=1;dashed=1;entryX=0;entryY=0;entryDx=220;entryDy=35;entryPerimeter=0;" parent="1" source="1672d66443f91eb5-11" target="1672d66443f91eb5-2" edge="1">
          <mxGeometry relative="1" as="geometry">
            <mxPoint x="1345.6842105263158" y="795" as="targetPoint" />
          </mxGeometry>
        </mxCell>
        <mxCell id="1672d66443f91eb5-11" value="&lt;b&gt;VerifiedBy&lt;/b&gt;&lt;div&gt;&amp;lt;&amp;lt;testCase&amp;gt;&amp;gt; MaxAcceleration&lt;/div&gt;" style="shape=note;size=15;align=left;spacingLeft=10;html=1;whiteSpace=wrap;strokeWidth=1;fontSize=12;" parent="1" vertex="1">
          <mxGeometry x="1133" y="440" width="210" height="60" as="geometry" />
        </mxCell>
        <mxCell id="1672d66443f91eb5-23" value="Simple Factory" style="text;strokeColor=none;fillColor=none;html=1;fontSize=24;fontStyle=1;verticalAlign=middle;align=center;" parent="1" vertex="1">
          <mxGeometry x="120" y="40" width="1510" height="40" as="geometry" />
        </mxCell>
        <mxCell id="VRhqkvrbpAAPV1a3rQn5-9" style="edgeStyle=orthogonalEdgeStyle;rounded=0;orthogonalLoop=1;jettySize=auto;html=1;entryX=0.75;entryY=1;entryDx=0;entryDy=0;entryPerimeter=0;endArrow=block;endFill=0;" edge="1" parent="1" source="VRhqkvrbpAAPV1a3rQn5-4" target="VRhqkvrbpAAPV1a3rQn5-8">
          <mxGeometry relative="1" as="geometry" />
        </mxCell>
        <mxCell id="VRhqkvrbpAAPV1a3rQn5-11" style="edgeStyle=orthogonalEdgeStyle;rounded=0;orthogonalLoop=1;jettySize=auto;html=1;entryX=0.75;entryY=1;entryDx=0;entryDy=0;endArrow=openAsync;endFill=0;dashed=1;" edge="1" parent="1" source="VRhqkvrbpAAPV1a3rQn5-4" target="1672d66443f91eb5-5">
          <mxGeometry relative="1" as="geometry">
            <Array as="points">
              <mxPoint x="650" y="820" />
              <mxPoint x="1110" y="820" />
            </Array>
          </mxGeometry>
        </mxCell>
        <mxCell id="VRhqkvrbpAAPV1a3rQn5-4" value="&lt;p&gt;class Bike&lt;/p&gt;&lt;hr&gt;-drive()" style="shape=rect;html=1;overflow=fill;whiteSpace=wrap;align=center;fontStyle=1" vertex="1" parent="1">
          <mxGeometry x="570" y="595" width="160" height="70" as="geometry" />
        </mxCell>
        <mxCell id="VRhqkvrbpAAPV1a3rQn5-10" style="edgeStyle=orthogonalEdgeStyle;rounded=0;orthogonalLoop=1;jettySize=auto;html=1;entryX=0.25;entryY=1;entryDx=0;entryDy=0;entryPerimeter=0;endArrow=block;endFill=0;" edge="1" parent="1" source="VRhqkvrbpAAPV1a3rQn5-5" target="VRhqkvrbpAAPV1a3rQn5-8">
          <mxGeometry relative="1" as="geometry" />
        </mxCell>
        <mxCell id="VRhqkvrbpAAPV1a3rQn5-12" style="edgeStyle=orthogonalEdgeStyle;rounded=0;orthogonalLoop=1;jettySize=auto;html=1;entryX=0.25;entryY=1;entryDx=0;entryDy=0;endArrow=openAsync;endFill=0;dashed=1;" edge="1" parent="1" source="VRhqkvrbpAAPV1a3rQn5-5" target="1672d66443f91eb5-4">
          <mxGeometry relative="1" as="geometry">
            <Array as="points">
              <mxPoint x="450" y="770" />
              <mxPoint x="790" y="770" />
            </Array>
          </mxGeometry>
        </mxCell>
        <mxCell id="VRhqkvrbpAAPV1a3rQn5-5" value="&lt;p&gt;class Car&lt;/p&gt;&lt;hr&gt;-drive()" style="shape=rect;html=1;overflow=fill;whiteSpace=wrap;align=center;fontStyle=1" vertex="1" parent="1">
          <mxGeometry x="370" y="595" width="160" height="70" as="geometry" />
        </mxCell>
        <mxCell id="VRhqkvrbpAAPV1a3rQn5-8" value="&lt;i style=&quot;font-weight: normal&quot;&gt;&amp;lt;&amp;lt;&lt;/i&gt;&lt;span style=&quot;font-weight: normal&quot;&gt;&lt;i&gt;AutoMobileInterface&lt;/i&gt;&lt;/span&gt;&lt;i style=&quot;font-weight: normal&quot;&gt;&amp;gt;&amp;gt;&lt;/i&gt;&lt;br&gt;-drive()" style="shape=folder;tabWidth=80;tabHeight=0;tabPosition=left;strokeWidth=1;html=1;whiteSpace=wrap;align=center;fontSize=12;fontStyle=1" vertex="1" parent="1">
          <mxGeometry x="440" y="430" width="220" height="70" as="geometry" />
        </mxCell>
      </root>
    </mxGraphModel>
  </diagram>
</mxfile>
